<?xml version="1.0" standalone="no"?>
<!DOCTYPE svg PUBLIC "-//W3C//DTD SVG 20010904//EN"
 "http://www.w3.org/TR/2001/REC-SVG-20010904/DTD/svg10.dtd">
<svg version="1.0" xmlns="http://www.w3.org/2000/svg"
 width="700.000000pt" height="700.000000pt" viewBox="0 0 700.000000 700.000000"
 preserveAspectRatio="xMidYMid meet">
<metadata>
Created by potrace 1.11, written by Peter Selinger 2001-2013
</metadata>
<g transform="translate(0.000000,700.000000) scale(0.100000,-0.100000)"
fill="#000000" stroke="none">
<path d="M4665 6224 c-56 -12 -228 -26 -320 -26 -64 0 -475 13 -530 17 -378
27 -648 -26 -771 -153 -79 -80 -166 -230 -241 -412 -19 -47 -41 -98 -48 -115
-16 -36 -315 -827 -331 -875 -18 -55 -48 -95 -112 -150 -79 -67 -153 -159
-184 -227 -23 -53 -26 -149 -4 -191 28 -54 64 -75 121 -69 154 14 267 139 335
367 13 41 27 81 33 88 14 18 252 147 354 192 194 86 433 120 593 86 221 -47
387 -218 436 -451 8 -41 14 -302 7 -342 l-5 -32 -124 2 c-142 2 -159 -6 -167
-78 -7 -61 3 -78 49 -82 65 -5 148 -11 172 -12 21 -1 23 -4 17 -32 -17 -76
-120 -305 -202 -446 -312 -540 -799 -924 -1291 -1017 -190 -36 -415 -38 -537
-4 -51 15 -46 13 -78 26 -16 7 -30 12 -33 12 -3 0 -28 15 -57 33 -92 59 -146
127 -192 243 -65 164 -91 190 -167 171 -40 -10 -61 -58 -64 -148 -6 -149 40
-258 155 -369 102 -98 289 -187 432 -205 30 -4 58 -9 62 -12 15 -9 270 -11
342 -2 157 19 179 23 290 49 206 48 428 147 622 276 61 41 118 80 125 86 7 7
40 36 73 63 220 184 464 480 611 740 83 147 183 381 209 487 l7 28 92 -5 c140
-8 250 -15 252 -18 2 -1 -1 -20 -6 -42 -4 -22 -11 -62 -15 -90 -7 -57 -14
-108 -20 -145 -3 -14 -10 -61 -16 -105 -6 -44 -13 -89 -15 -100 -1 -11 -8 -55
-14 -97 -6 -42 -13 -85 -15 -96 -2 -11 -6 -42 -10 -69 -4 -26 -9 -61 -12 -78
-3 -16 -6 -39 -7 -50 -4 -35 -18 -139 -22 -157 -4 -24 22 -48 54 -49 15 -1 34
-2 42 -3 19 -2 74 24 66 31 -3 3 -1 13 3 22 5 9 11 35 14 57 4 23 13 86 22
140 9 54 18 116 21 139 4 22 8 49 9 60 2 11 6 38 10 60 3 22 8 51 11 65 2 14
6 36 9 50 3 14 14 72 26 130 12 58 22 110 23 115 1 6 13 54 25 108 l23 97 326
-5 c180 -4 363 -8 407 -10 227 -11 259 -8 314 33 42 31 66 83 75 160 8 72 -75
121 -214 127 -47 2 -107 0 -135 -6 -27 -5 -72 -12 -100 -14 -27 -3 -57 -7 -65
-10 -8 -2 -44 -7 -80 -10 -36 -3 -81 -8 -100 -10 -40 -4 -128 -11 -244 -21
-44 -3 -88 -7 -98 -9 -31 -6 -35 -24 118 470 14 44 27 87 29 95 3 8 18 53 36
100 31 86 56 198 53 235 -9 90 -35 148 -73 160 -58 18 -127 3 -189 -42 -40
-30 -58 -63 -68 -128 -4 -28 -8 -52 -9 -55 -1 -3 -4 -18 -8 -35 -3 -16 -8 -46
-11 -65 -5 -31 -24 -139 -55 -305 -5 -27 -12 -66 -15 -85 -3 -19 -8 -46 -11
-60 -3 -13 -12 -65 -20 -115 -8 -49 -20 -113 -25 -140 l-10 -50 -164 0 c-91 0
-167 2 -169 5 -3 3 -1 25 3 50 14 70 5 305 -14 395 -66 300 -256 526 -519 616
-104 35 -128 39 -262 44 -112 4 -213 -9 -325 -42 -113 -34 -321 -130 -439
-204 -25 -15 -47 -26 -49 -25 -2 3 131 348 164 423 8 17 14 34 14 37 0 3 8 25
19 49 10 23 40 96 66 162 70 178 150 322 221 402 37 41 131 87 214 104 96 20
372 18 635 -6 46 -4 319 -17 415 -19 77 -2 152 10 198 31 53 25 92 115 117
271 6 37 5 37 -90 16z"/>
<path d="M6045 4848 c-49 -17 -91 -31 -93 -33 -2 -2 11 -52 28 -111 18 -60 34
-116 36 -124 1 -8 33 -118 69 -245 36 -126 68 -237 70 -245 28 -106 39 -146
57 -205 12 -38 22 -75 24 -81 1 -6 28 -101 59 -210 31 -110 58 -206 60 -214 2
-8 34 -118 70 -245 36 -126 68 -237 70 -245 2 -8 6 -27 10 -42 5 -18 3 -28 -4
-28 -6 0 -34 -10 -63 -23 -29 -13 -73 -32 -98 -41 -70 -28 -93 -38 -125 -52
-16 -8 -122 -50 -235 -95 -113 -45 -233 -94 -268 -110 -35 -16 -65 -29 -68
-29 -2 0 -72 -33 -154 -74 -167 -82 -373 -203 -465 -271 -33 -25 -70 -52 -83
-62 -114 -83 -291 -254 -400 -386 -90 -109 -262 -352 -262 -371 0 -2 -17 -33
-38 -67 -21 -35 -60 -110 -87 -167 l-50 -103 -18 53 c-10 29 -20 58 -21 63
-35 139 -217 670 -270 790 -7 17 -26 64 -41 105 -16 41 -35 82 -43 90 -8 8
-12 9 -8 3 7 -12 10 -23 21 -83 3 -14 7 -34 9 -45 26 -128 36 -175 41 -186 2
-8 6 -25 9 -39 11 -65 114 -462 169 -652 19 -65 29 -115 23 -111 -6 4 -38 25
-71 49 -64 45 -182 107 -280 147 -69 28 -240 85 -276 92 -13 3 -53 12 -89 21
-36 9 -74 18 -85 20 -11 2 -58 10 -105 18 -83 15 -110 19 -200 30 -176 24
-309 31 -550 30 -202 0 -380 -8 -450 -19 -14 -2 -54 -7 -90 -10 -36 -4 -74 -9
-85 -11 -11 -3 -36 -7 -55 -10 -19 -2 -46 -7 -60 -10 -14 -2 -38 -7 -55 -10
-132 -23 -368 -94 -482 -145 l-62 -28 -87 267 c-47 147 -102 317 -121 377 -19
61 -37 117 -40 125 -4 8 -7 17 -8 20 0 3 -11 37 -24 75 -24 76 -159 494 -278
865 -42 129 -77 236 -78 238 -2 3 -116 -47 -124 -54 -1 -1 5 -27 15 -56 10
-29 19 -55 19 -58 1 -3 29 -93 64 -200 145 -449 316 -982 372 -1160 22 -69 46
-143 54 -165 7 -22 43 -134 80 -250 72 -229 75 -238 100 -307 l16 -47 117 58
c220 111 491 210 672 246 8 2 33 8 55 14 41 10 66 15 145 26 24 4 47 8 50 10
3 2 32 6 65 9 33 4 76 9 95 11 121 16 432 22 570 10 109 -9 172 -15 200 -19
14 -2 50 -7 80 -11 30 -4 62 -9 70 -10 57 -11 189 -36 205 -39 11 -3 63 -16
115 -31 118 -33 112 -31 130 -37 8 -4 64 -23 124 -43 125 -41 300 -117 416
-180 l78 -42 28 51 c106 198 171 304 272 440 200 270 446 504 728 694 101 67
255 162 311 190 306 155 359 178 598 269 162 60 315 111 525 173 96 29 178 55
182 59 4 4 3 22 -3 41 -5 19 -12 42 -14 50 -3 14 -154 553 -231 825 -19 66
-36 128 -39 138 -4 19 -94 339 -125 447 -23 80 -52 184 -52 187 0 1 -11 40
-24 85 -14 46 -26 90 -28 98 -2 8 -12 41 -21 74 -9 32 -18 64 -19 70 -1 6 -5
17 -9 24 -5 6 -6 12 -4 12 8 0 -49 184 -58 186 -6 1 -50 -11 -100 -28z"/>
</g>
</svg>
