<?xml version="1.0" encoding="UTF-8"?>
<!DOCTYPE svg PUBLIC "-//W3C//DTD SVG 1.1//EN" "http://www.w3.org/Graphics/SVG/1.1/DTD/svg11.dtd">
<!-- Creator: CorelDRAW X8 -->
<svg xmlns="http://www.w3.org/2000/svg" xml:space="preserve" width="178.084mm" height="83.7354mm" version="1.1" style="shape-rendering:geometricPrecision; text-rendering:geometricPrecision; image-rendering:optimizeQuality; fill-rule:evenodd; clip-rule:evenodd"
viewBox="0 0 3645 1714"
 xmlns:xlink="http://www.w3.org/1999/xlink">
 <defs>
  <style type="text/css">
   <![CDATA[
    .fil1 {fill:#333366;fill-rule:nonzero}
    .fil0 {fill:#FF3333;fill-rule:nonzero}
   ]]>
  </style>
 </defs>
 <g id="РЎР_x00bb_РѕР_x2116__x0020_1">
  <metadata id="CorelCorpID_0Corel-Layer"/>
  <path class="fil0" d="M3450 97c0,-53 44,-97 97,-97 54,0 98,44 98,97 0,54 -44,97 -98,97 -53,0 -97,-43 -97,-97z"/>
  <path class="fil1" d="M3137 97c0,-53 43,-97 97,-97 54,0 97,44 97,97 0,54 -43,97 -97,97 -54,0 -97,-43 -97,-97z"/>
  <path class="fil0" d="M3137 401c0,-54 43,-97 97,-97 54,0 97,43 97,97 0,54 -43,97 -97,97 -54,0 -97,-43 -97,-97z"/>
  <path class="fil0" d="M2823 97c0,-53 43,-97 97,-97 54,0 97,44 97,97 0,54 -43,97 -97,97 -54,0 -97,-43 -97,-97z"/>
  <path class="fil1" d="M2509 97c0,-53 44,-97 97,-97 54,0 98,44 98,97 0,54 -44,97 -98,97 -53,0 -97,-43 -97,-97z"/>
  <path class="fil0" d="M2509 401c0,-54 44,-97 97,-97 54,0 98,43 98,97 0,54 -44,97 -98,97 -53,0 -97,-43 -97,-97z"/>
  <path class="fil1" d="M2196 97c0,-53 43,-97 97,-97 54,0 97,44 97,97 0,54 -43,97 -97,97 -54,0 -97,-43 -97,-97z"/>
  <path class="fil1" d="M2196 401c0,-54 43,-97 97,-97 54,0 97,43 97,97 0,54 -43,97 -97,97 -54,0 -97,-43 -97,-97z"/>
  <path class="fil1" d="M2196 705c0,-54 43,-97 97,-97 54,0 97,43 97,97 0,54 -43,97 -97,97 -54,0 -97,-43 -97,-97z"/>
  <path class="fil0" d="M2196 1009c0,-54 43,-97 97,-97 54,0 97,43 97,97 0,54 -43,97 -97,97 -54,0 -97,-43 -97,-97z"/>
  <path class="fil1" d="M1882 97c0,-53 43,-97 97,-97 54,0 97,44 97,97 0,54 -43,97 -97,97 -54,0 -97,-43 -97,-97z"/>
  <path class="fil1" d="M1882 401c0,-54 43,-97 97,-97 54,0 97,43 97,97 0,54 -43,97 -97,97 -54,0 -97,-43 -97,-97z"/>
  <path class="fil1" d="M1882 705c0,-54 43,-97 97,-97 54,0 97,43 97,97 0,54 -43,97 -97,97 -54,0 -97,-43 -97,-97z"/>
  <path class="fil1" d="M1882 1009c0,-54 43,-97 97,-97 54,0 97,43 97,97 0,54 -43,97 -97,97 -54,0 -97,-43 -97,-97z"/>
  <path class="fil1" d="M1882 1313c0,-54 43,-98 97,-98 54,0 97,44 97,98 0,53 -43,97 -97,97 -54,0 -97,-44 -97,-97z"/>
  <path class="fil0" d="M1882 1616c0,-53 43,-97 97,-97 54,0 97,44 97,97 0,54 -43,98 -97,98 -54,0 -97,-44 -97,-98z"/>
  <path class="fil1" d="M1568 97c0,-53 44,-97 98,-97 53,0 97,44 97,97 0,54 -44,97 -97,97 -54,0 -98,-43 -98,-97z"/>
  <path class="fil1" d="M1568 401c0,-54 44,-97 98,-97 53,0 97,43 97,97 0,54 -44,97 -97,97 -54,0 -98,-43 -98,-97z"/>
  <path class="fil1" d="M1568 705c0,-54 44,-97 98,-97 53,0 97,43 97,97 0,54 -44,97 -97,97 -54,0 -98,-43 -98,-97z"/>
  <path class="fil1" d="M1568 1009c0,-54 44,-97 98,-97 53,0 97,43 97,97 0,54 -44,97 -97,97 -54,0 -98,-43 -98,-97z"/>
  <path class="fil0" d="M1568 1313c0,-54 44,-98 98,-98 53,0 97,44 97,98 0,53 -44,97 -97,97 -54,0 -98,-44 -98,-97z"/>
  <path class="fil1" d="M1255 97c0,-53 43,-97 97,-97 54,0 97,44 97,97 0,54 -43,97 -97,97 -54,0 -97,-43 -97,-97z"/>
  <path class="fil0" d="M1255 401c0,-54 43,-97 97,-97 54,0 97,43 97,97 0,54 -43,97 -97,97 -54,0 -97,-43 -97,-97z"/>
  <path class="fil1" d="M941 97c0,-53 44,-97 97,-97 54,0 97,44 97,97 0,54 -43,97 -97,97 -53,0 -97,-43 -97,-97z"/>
  <path class="fil1" d="M941 401c0,-54 44,-97 97,-97 54,0 97,43 97,97 0,54 -43,97 -97,97 -53,0 -97,-43 -97,-97z"/>
  <path class="fil1" d="M941 705c0,-54 44,-97 97,-97 54,0 97,43 97,97 0,54 -43,97 -97,97 -53,0 -97,-43 -97,-97z"/>
  <path class="fil0" d="M941 1009c0,-54 44,-97 97,-97 54,0 97,43 97,97 0,54 -43,97 -97,97 -53,0 -97,-43 -97,-97z"/>
  <path class="fil1" d="M627 97c0,-53 44,-97 98,-97 53,0 97,44 97,97 0,54 -44,97 -97,97 -54,0 -98,-43 -98,-97z"/>
  <path class="fil1" d="M627 401c0,-54 44,-97 98,-97 53,0 97,43 97,97 0,54 -44,97 -97,97 -54,0 -98,-43 -98,-97z"/>
  <path class="fil1" d="M627 705c0,-54 44,-97 98,-97 53,0 97,43 97,97 0,54 -44,97 -97,97 -54,0 -98,-43 -98,-97z"/>
  <path class="fil1" d="M627 1009c0,-54 44,-97 98,-97 53,0 97,43 97,97 0,54 -44,97 -97,97 -54,0 -98,-43 -98,-97z"/>
  <path class="fil1" d="M627 1313c0,-54 44,-98 98,-98 53,0 97,44 97,98 0,53 -44,97 -97,97 -54,0 -98,-44 -98,-97z"/>
  <path class="fil0" d="M627 1616c0,-53 44,-97 98,-97 53,0 97,44 97,97 0,54 -44,98 -97,98 -54,0 -98,-44 -98,-98z"/>
  <path class="fil1" d="M314 97c0,-53 43,-97 97,-97 54,0 97,44 97,97 0,54 -43,97 -97,97 -54,0 -97,-43 -97,-97z"/>
  <path class="fil1" d="M314 401c0,-54 43,-97 97,-97 54,0 97,43 97,97 0,54 -43,97 -97,97 -54,0 -97,-43 -97,-97z"/>
  <path class="fil1" d="M314 705c0,-54 43,-97 97,-97 54,0 97,43 97,97 0,54 -43,97 -97,97 -54,0 -97,-43 -97,-97z"/>
  <path class="fil1" d="M314 1009c0,-54 43,-97 97,-97 54,0 97,43 97,97 0,54 -43,97 -97,97 -54,0 -97,-43 -97,-97z"/>
  <path class="fil0" d="M314 1313c0,-54 43,-98 97,-98 54,0 97,44 97,98 0,53 -43,97 -97,97 -54,0 -97,-44 -97,-97z"/>
  <path class="fil1" d="M0 97c0,-53 44,-97 97,-97 54,0 97,44 97,97 0,54 -43,97 -97,97 -53,0 -97,-43 -97,-97z"/>
  <path class="fil1" d="M0 401c0,-54 44,-97 97,-97 54,0 97,43 97,97 0,54 -43,97 -97,97 -53,0 -97,-43 -97,-97z"/>
  <path class="fil0" d="M0 705c0,-54 44,-97 97,-97 54,0 97,43 97,97 0,54 -43,97 -97,97 -53,0 -97,-43 -97,-97z"/>
 </g>
</svg>
