<?xml version="1.0" encoding="UTF-8"?>
<!DOCTYPE svg PUBLIC "-//W3C//DTD SVG 1.1//EN" "http://www.w3.org/Graphics/SVG/1.1/DTD/svg11.dtd">
<!-- Creator: CorelDRAW X8 -->
<svg xmlns="http://www.w3.org/2000/svg" xml:space="preserve" width="7.38872cm" height="7.4406cm" version="1.1" style="shape-rendering:geometricPrecision; text-rendering:geometricPrecision; image-rendering:optimizeQuality; fill-rule:evenodd; clip-rule:evenodd"
viewBox="0 0 3749 3775"
 xmlns:xlink="http://www.w3.org/1999/xlink">
 <defs>
  <style type="text/css">
   <![CDATA[
    .fil6 {fill:#242C68}
    .fil9 {fill:#B5B5B5}
    .fil5 {fill:#FF2513}
    .fil3 {fill:#EF7F1A;fill-rule:nonzero}
    .fil0 {fill:#E31E24;fill-rule:nonzero}
    .fil2 {fill:#00A0E3;fill-rule:nonzero}
    .fil1 {fill:#009846;fill-rule:nonzero}
    .fil4 {fill:#242C68;fill-rule:nonzero}
    .fil7 {fill:#333366;fill-rule:nonzero}
    .fil10 {fill:#B5B5B5;fill-rule:nonzero}
    .fil8 {fill:#FF3333;fill-rule:nonzero}
   ]]>
  </style>
 </defs>
 <g id="Слой_x0020_1">
  <metadata id="CorelCorpID_0Corel-Layer"/>
  <path class="fil0" d="M2264 1376c-15,28 -45,86 -91,175 -26,49 -60,115 -105,197 4,6 26,31 66,75 24,26 58,58 101,97 -18,8 -48,21 -89,38 -23,11 -56,26 -98,46 -10,-13 -31,-42 -63,-88 -18,-28 -36,-57 -52,-88l-2 0 -4 141 -225 0 -11 -325c-3,-72 -10,-172 -19,-301l283 0 -16 275 3 0c12,-32 30,-85 56,-159 10,-32 24,-76 40,-132l115 26c37,8 74,15 111,23z"/>
  <path id="1" class="fil1" d="M2606 1343l-16 333c-3,72 -7,170 -11,293l-229 0 -27 -626 283 0z"/>
  <path id="2" class="fil2" d="M3238 1661c0,98 -31,175 -92,232 -63,58 -151,87 -265,87 -74,0 -130,-3 -170,-11l-11 -303c-4,-77 -10,-184 -19,-321 59,-8 120,-13 184,-13 115,0 204,27 269,80 69,57 104,140 104,249zm-167 50c0,-40 -13,-69 -39,-88 -22,-16 -49,-23 -82,-22l-6 256c34,-3 63,-14 85,-34 28,-25 42,-63 42,-112z"/>
  <path id="3" class="fil3" d="M3707 1600c-20,-5 -36,-7 -46,-7 -13,0 -24,4 -35,13 -13,11 -19,24 -19,41 0,13 11,38 35,75 23,38 35,72 35,103 0,45 -17,83 -52,111 -33,28 -73,43 -122,43 -44,0 -77,-4 -98,-10 -3,-12 -7,-33 -13,-61 -4,-15 -9,-35 -16,-61 30,8 50,11 61,11 40,0 60,-15 60,-46 0,-22 -8,-42 -24,-60 -27,-23 -53,-46 -80,-70 -52,-46 -78,-100 -78,-163 0,-65 25,-115 74,-148 42,-30 99,-44 170,-44 40,0 85,5 135,17l13 256z"/>
  <g id="_2266001224576">
   <path class="fil4" d="M722 480l105 -277c30,-81 60,-133 89,-158 29,-25 76,-38 140,-40 21,0 57,1 109,3 52,3 94,4 126,3 22,0 42,-1 61,-3 19,-2 37,-5 54,-8l-9 42c-4,21 -11,35 -20,42 -9,7 -24,11 -45,12 -29,0 -74,-2 -135,-6 -62,-5 -109,-7 -141,-6 -46,1 -78,10 -98,26 -21,16 -42,49 -64,101l-89 219c48,-28 90,-48 123,-61 34,-12 66,-19 97,-19 73,-2 133,20 179,66 46,46 70,108 72,185 2,56 -11,117 -38,184 -27,67 -65,130 -113,189 -64,81 -135,141 -212,182 -76,41 -159,63 -247,65 -73,2 -133,-12 -180,-43 -48,-31 -72,-70 -73,-119 -1,-17 2,-30 7,-40 5,-9 12,-14 21,-15 14,0 25,13 34,39 3,7 4,12 6,15 11,33 32,58 62,74 31,17 72,24 124,23 68,-2 132,-19 193,-50 61,-32 118,-77 171,-137 49,-56 88,-118 117,-185 29,-67 43,-127 42,-178 -2,-57 -18,-102 -51,-135 -32,-33 -75,-49 -129,-47 -32,1 -66,8 -102,21 -36,14 -78,35 -125,64 -10,42 -23,74 -41,96 -18,24 -40,35 -66,36 -10,0 -19,-4 -26,-12 -7,-8 -11,-18 -11,-31 0,-18 7,-38 22,-58 15,-21 35,-41 61,-59z"/>
   <path class="fil5" d="M1363 1021c29,-216 54,-313 121,-520 11,-34 32,-73 23,-115 -5,-23 -11,-27 -35,-30 -12,-2 -50,14 -54,39 -18,94 -51,279 -63,348l-40 277c-2,15 1,16 20,18 15,1 25,3 28,-17z"/>
   <path class="fil5" d="M1391 669c92,-7 186,-13 258,-27 38,-6 97,7 93,35 -9,60 -40,63 -103,57 -41,-3 -160,-3 -284,-8 -41,-1 -152,-10 -236,-14 -25,-1 -17,-12 -17,-25 0,-19 7,-25 42,-21 73,7 209,6 247,3z"/>
   <path class="fil6" d="M95 924l36 -16 184 568c229,-110 702,-91 869,52 -34,-112 -56,-198 -84,-337 46,110 81,210 115,330 170,-374 437,-425 696,-536l-163 -575 58 -18 182 646c-316,89 -604,212 -765,542 -228,-131 -600,-188 -920,-9l-208 -647z"/>
  </g>
  <g id="_2273214432560">
   <path class="fil7" d="M3100 2513c0,-59 58,-118 127,-118 59,0 117,59 117,118 0,68 -58,127 -117,127 -69,0 -127,-59 -127,-127z"/>
   <path class="fil8" d="M3100 2895c0,-69 58,-118 127,-118 59,0 117,49 117,118 0,68 -58,127 -117,127 -69,0 -127,-59 -127,-127z"/>
   <path class="fil7" d="M2708 2513c0,-59 59,-118 127,-118 59,0 118,59 118,118 0,68 -59,127 -118,127 -68,0 -127,-59 -127,-127z"/>
   <path class="fil7" d="M2708 2895c0,-69 59,-118 127,-118 59,0 118,49 118,118 0,68 -59,127 -118,127 -68,0 -127,-59 -127,-127z"/>
   <path class="fil7" d="M2708 3276c0,-68 59,-117 127,-117 59,0 118,49 118,117 0,69 -59,118 -118,118 -68,0 -127,-49 -127,-118z"/>
   <path class="fil8" d="M2708 3658c0,-69 59,-127 127,-127 59,0 118,58 118,127 0,68 -59,117 -118,117 -68,0 -127,-49 -127,-117z"/>
   <path class="fil7" d="M2317 2513c0,-59 59,-118 127,-118 59,0 117,59 117,118 0,68 -58,127 -117,127 -68,0 -127,-59 -127,-127z"/>
   <path class="fil7" d="M2317 2895c0,-69 59,-118 127,-118 59,0 117,49 117,118 0,68 -58,127 -117,127 -68,0 -127,-59 -127,-127z"/>
   <path class="fil8" d="M2317 3276c0,-68 59,-117 127,-117 59,0 117,49 117,117 0,69 -58,118 -117,118 -68,0 -127,-49 -127,-118z"/>
   <path class="fil7" d="M1534 2513c0,-59 59,-118 117,-118 69,0 128,59 128,118 0,68 -59,127 -128,127 -58,0 -117,-59 -117,-127z"/>
   <path class="fil8" d="M1534 2895c0,-69 59,-118 117,-118 69,0 128,49 128,118 0,68 -59,127 -128,127 -58,0 -117,-59 -117,-127z"/>
   <path class="fil7" d="M1143 2513c0,-59 58,-118 117,-118 68,0 127,59 127,118 0,68 -59,127 -127,127 -59,0 -117,-59 -117,-127z"/>
   <path class="fil7" d="M1143 2895c0,-69 58,-118 117,-118 68,0 127,49 127,118 0,68 -59,127 -127,127 -59,0 -117,-59 -117,-127z"/>
   <path class="fil7" d="M1143 3276c0,-68 58,-117 117,-117 68,0 127,49 127,117 0,69 -59,118 -127,118 -59,0 -117,-49 -117,-118z"/>
   <path class="fil8" d="M1143 3658c0,-69 58,-127 117,-127 68,0 127,58 127,127 0,68 -59,117 -127,117 -59,0 -117,-49 -117,-117z"/>
   <path class="fil7" d="M751 2513c0,-59 59,-118 118,-118 68,0 127,59 127,118 0,68 -59,127 -127,127 -59,0 -118,-59 -118,-127z"/>
   <path class="fil7" d="M751 2895c0,-69 59,-118 118,-118 68,0 127,49 127,118 0,68 -59,127 -127,127 -59,0 -118,-59 -118,-127z"/>
   <path class="fil8" d="M751 3276c0,-68 59,-117 118,-117 68,0 127,49 127,117 0,69 -59,118 -127,118 -59,0 -118,-49 -118,-118z"/>
   <path class="fil8" d="M360 2513c0,-59 58,-118 117,-118 69,0 127,59 127,118 0,68 -58,127 -127,127 -59,0 -117,-59 -117,-127z"/>
  </g>
  <polygon class="fil9" points="0,2199 3749,2199 "/>
  <polygon class="fil10" points="0,2199 1874,2195 3749,2199 1874,2203 "/>
 </g>
</svg>
