<?xml version="1.0" encoding="UTF-8" standalone="no"?>
<svg
   xmlns:dc="http://purl.org/dc/elements/1.1/"
   xmlns:cc="http://creativecommons.org/ns#"
   xmlns:rdf="http://www.w3.org/1999/02/22-rdf-syntax-ns#"
   xmlns:svg="http://www.w3.org/2000/svg"
   xmlns="http://www.w3.org/2000/svg"
   viewBox="0 0 2267.7166 2267.7166"
   id="svg2"
   height="2267.7166"
   width="2267.7166"
   version="1.1">
  <metadata
     id="metadata46">
    <rdf:RDF>
      <cc:Work
         rdf:about="">
        <dc:format>image/svg+xml</dc:format>
        <dc:type
           rdf:resource="http://purl.org/dc/dcmitype/StillImage" />
      </cc:Work>
    </rdf:RDF>
  </metadata>
  <defs
     id="defs44" />
  <path
     id="path4"
     style="fill:#242c68;fill-rule:evenodd"
     d="M 775.4148,578.7677 893.1345,267.3403 c 33.9418,-90.1568 67.1286,-149.1112 99.9453,-177.2632 32.8269,-27.7622 84.9425,-42.7822 156.7514,-44.68 23.2787,-0.6154 63.9794,0.6478 122.8915,3.7681 58.5179,3.1309 105.5319,4.2268 141.0418,3.2882 24.4621,-0.6466 47.3258,-2.0302 68.5905,-4.1513 21.2649,-2.1215 41.3254,-4.9901 60.5764,-8.6173 l -10.1965,47.4329 c -4.1276,23.1061 -11.617,38.5056 -22.0641,46.5772 -10.4366,8.4614 -27.2996,12.8047 -50.5783,13.4201 -32.3538,0.8549 -82.9494,-1.3156 -152.1819,-6.5018 -69.2322,-5.1863 -121.8007,-7.3049 -158.0998,-6.3457 -50.8975,1.3454 -87.7592,10.8947 -110.1903,28.6379 -22.8257,17.7537 -46.3,55.7929 -71.2117,114.139 l -99.7112,245.8579 c 53.6456,-31.8206 100.0312,-54.4845 137.9633,-68.3499 38.3267,-13.8755 74.0565,-21.4463 107.9881,-22.3432 82.4618,-2.1793 149.4471,22.5556 201.3605,74.5832 51.9134,52.0279 79.0078,121.0822 81.3036,207.9425 1.6469,62.3214 -12.718,131.3022 -43.1051,206.5536 -30.3772,75.6405 -72.3401,146.1305 -126.2633,212.2591 -72.2341,90.3892 -151.7726,158.3643 -238.2007,204.6937 -86.0434,45.9295 -178.5821,70.2031 -277.2207,72.8099 -82.4621,2.1795 -150.0097,-13.9649 -203.0383,-48.4231 -53.0282,-34.4586 -80.2632,-78.9531 -81.7146,-133.8735 -0.4943,-18.6965 1.8661,-33.9602 7.5065,-44.6335 5.6406,-10.6733 13.782,-16.3454 24.4352,-16.6269 15.3876,-0.4068 28.0099,14.0714 38.2617,43.4236 2.5628,7.3384 4.2956,13.1392 5.9766,16.9926 12.8353,37.4695 36.0762,65.3091 70.5127,83.4982 34.4361,18.189 80.4515,26.3276 138.4509,24.7946 76.1493,-2.0126 148.6992,-20.6903 216.8611,-56.0132 68.5562,-35.333 132.3505,-86.521 191.7768,-153.5748 55.1895,-63.044 99.1667,-132.0279 131.9106,-207.7314 32.7546,-75.3134 48.365,-141.9888 46.8413,-199.6358 -1.7087,-64.6586 -20.4179,-115.2253 -56.5319,-152.0793 -36.1136,-36.8544 -84.3491,-54.2886 -145.5052,-52.6723 -35.9047,0.9488 -74.3856,8.9819 -114.6543,24.0783 -40.663,15.1067 -87.4125,38.9495 -140.2483,71.5284 -10.6115,46.6642 -25.8412,82.9267 -46.4885,108.4181 -20.2419,25.8709 -44.7696,38.9919 -73.5721,39.7533 -11.4423,0.3025 -21.0351,-4.1216 -29.1628,-12.8715 -7.7437,-9.15 -11.998,-20.7309 -12.3789,-35.1428 -0.5457,-20.6439 7.5685,-42.2964 24.3212,-65.736 16.7636,-23.0505 39.8704,-45.099 69.3318,-65.7565 z" />
  <path
     id="path6"
     style="fill:#ff2513;fill-rule:evenodd;stroke:#ff2513;stroke-width:0.56690001;stroke-linecap:butt;stroke-linejoin:miter;stroke-dasharray:none"
     d="m 1494.2992,1186.0117 c 33.4975,-242.3409 61.5983,-351.4431 136.7623,-583.6697 12.2189,-37.7518 35.2514,-82.3551 24.9325,-129.2969 -5.5338,-25.1754 -11.5533,-30.2887 -39.1886,-33.9427 -13.2061,-1.7471 -55.4708,16.2147 -60.7933,44.275 -19.9945,105.4145 -56.6782,313.417 -70.2148,390.1595 l -45.451,311.6946 c -1.9046,16.507 1.1243,17.8899 23.3382,19.9788 16.4755,1.5493 27.6084,3.0626 30.6147,-19.1986 z" />
  <path
     id="path8"
     style="fill:#ff2513;fill-rule:evenodd;stroke:#ff2513;stroke-width:0.56690001;stroke-linecap:butt;stroke-linejoin:miter;stroke-dasharray:none"
     d="m 1526.544,790.5803 c 103.4012,-7.7638 208.7636,-14.6614 289.461,-29.3924 42.3393,-7.7298 108.564,6.7849 103.9647,39.0464 -9.5592,67.0733 -44.9225,70.2431 -114.8895,64.1302 -46.2873,-4.0427 -179.5576,-3.5289 -319.0258,-9.0921 -45.9153,-1.8311 -171.3797,-12.0841 -264.9618,-16.0781 -28.1784,-1.2012 -19.8168,-13.154 -19.796,-27.8119 0.03,-21.3993 8.6174,-27.7323 47.3318,-24.1321 82.4693,7.6716 235.3357,6.5277 277.9156,3.33 z" />
  <path
     id="path10"
     style="fill:#242c68;fill-rule:evenodd;stroke:#393185;stroke-width:0.56690001;stroke-linecap:butt;stroke-linejoin:miter;stroke-dasharray:none"
     d="m 70.866,1077.8652 40.6548,-18.8388 206.2486,638.5739 c 257.4066,-123.8103 788.72,-102.4778 975.7071,58.5041 -37.79,-125.9622 -62.1874,-223.3784 -94.2007,-378.7816 51.6122,123.581 90.8818,236.0358 128.9056,370.8486 191.6552,-420.3313 491.3333,-477.6684 782.2351,-602.4097 l -183.2747,-645.9628 65.4434,-19.8304 204.2653,725.8309 c -355.3175,99.5254 -678.6351,237.8505 -858.9708,607.7928 -256.0305,-147.261 -674.6619,-211.2719 -1034.0224,-9.5161 L 70.866,1077.8652 Z" />
</svg>
